<?xml version="1.0" encoding="UTF-8" standalone="no"?><svg xmlns="http://www.w3.org/2000/svg" xmlns:xlink="http://www.w3.org/1999/xlink" contentScriptType="application/ecmascript" contentStyleType="text/css" height="208px" preserveAspectRatio="none" style="width:308px;height:208px;" version="1.1" viewBox="0 0 308 208" width="308px" zoomAndPan="magnify"><defs><filter height="300%" id="f14hd8p6k8lwre" width="300%" x="-1" y="-1"><feGaussianBlur result="blurOut" stdDeviation="2.0"/><feColorMatrix in="blurOut" result="blurOut2" type="matrix" values="0 0 0 0 0 0 0 0 0 0 0 0 0 0 0 0 0 0 .4 0"/><feOffset dx="4.0" dy="4.0" in="blurOut2" result="blurOut3"/><feBlend in="SourceGraphic" in2="blurOut3" mode="normal"/></filter></defs><g><!--MD5=[128f0757cf0ea77f14e95a88885fd9f7]
entity Usuario--><ellipse cx="32" cy="72.5" fill="#FEFECE" filter="url(#f14hd8p6k8lwre)" rx="8" ry="8" style="stroke: #A80036; stroke-width: 2.0;"/><path d="M32,80.5 L32,107.5 M19,88.5 L45,88.5 M32,107.5 L19,122.5 M32,107.5 L45,122.5 " fill="none" filter="url(#f14hd8p6k8lwre)" style="stroke: #A80036; stroke-width: 2.0;"/><text fill="#000000" font-family="sans-serif" font-size="14" lengthAdjust="spacingAndGlyphs" textLength="52" x="6" y="142.4951">Usuario</text><ellipse cx="207.5368" cy="27.8074" fill="#FEFECE" filter="url(#f14hd8p6k8lwre)" rx="87.0368" ry="19.8074" style="stroke: #A80036; stroke-width: 1.5;"/><text fill="#000000" font-family="sans-serif" font-size="14" lengthAdjust="spacingAndGlyphs" textLength="147" x="134.0368" y="32.4558">1. Controlar Contatos</text><ellipse cx="207.6728" cy="103.8346" fill="#FEFECE" filter="url(#f14hd8p6k8lwre)" rx="89.6728" ry="20.3346" style="stroke: #A80036; stroke-width: 1.5;"/><text fill="#000000" font-family="sans-serif" font-size="14" lengthAdjust="spacingAndGlyphs" textLength="153" x="131.1728" y="108.483">2. Controlar Telefones</text><ellipse cx="207.3427" cy="178.7685" fill="#FEFECE" filter="url(#f14hd8p6k8lwre)" rx="81.8427" ry="18.7685" style="stroke: #A80036; stroke-width: 1.5;"/><text fill="#000000" font-family="sans-serif" font-size="14" lengthAdjust="spacingAndGlyphs" textLength="135" x="139.8427" y="183.417">3. Controlar Grupos</text><!--MD5=[a955b3736dc2f3a93f8093e247fcc2b3]
link Usuario to 1. Controlar Contatos--><path d="M58.3039,92.2588 C75.3072,84.6985 97.9293,74.6945 118,66 C131.9166,59.9714 147.0886,53.494 160.9207,47.6252 " fill="none" id="Usuario-&gt;1. Controlar Contatos" style="stroke: #A80036; stroke-width: 1.0;"/><polygon fill="#A80036" points="165.5565,45.6598,155.7091,45.4903,160.9532,47.6115,158.8319,52.8556,165.5565,45.6598" style="stroke: #A80036; stroke-width: 1.0;"/><!--MD5=[67043d19a6cf17b555c0cd28b2b0c927]
link Usuario to 2. Controlar Telefones--><path d="M58.2741,104 C73.0836,104 92.5879,104 112.5916,104 " fill="none" id="Usuario-&gt;2. Controlar Telefones" style="stroke: #A80036; stroke-width: 1.0;"/><polygon fill="#A80036" points="117.6855,104,108.6855,100,112.6855,104,108.6855,108,117.6855,104" style="stroke: #A80036; stroke-width: 1.0;"/><!--MD5=[848ebbbaf4491b42fddb9b52dc04f708]
link Usuario to 3. Controlar Grupos--><path d="M58.2759,115.8062 C75.2681,123.3926 97.8882,133.401 118,142 C132.3064,148.1168 147.9646,154.6462 162.128,160.4905 " fill="none" id="Usuario-&gt;3. Controlar Grupos" style="stroke: #A80036; stroke-width: 1.0;"/><polygon fill="#A80036" points="166.8698,162.4446,160.0728,155.3171,162.247,160.5395,157.0246,162.7136,166.8698,162.4446" style="stroke: #A80036; stroke-width: 1.0;"/><!--MD5=[4e072db9347dc8b7399c99b8353bad76]
@startuml
left to right direction

actor Usuario

Usuario - -> (1. Controlar Contatos)
Usuario - -> (2. Controlar Telefones)
Usuario - -> (3. Controlar Grupos)
@enduml

PlantUML version 1.2019.10(Fri Sep 13 20:53:03 UTC 2019)
(GPL source distribution)
Java Runtime: OpenJDK Runtime Environment
JVM: OpenJDK 64-Bit Server VM
Java Version: 1.8.0_222-heroku-b10
Operating System: Linux
Default Encoding: UTF-8
Language: en
Country: US
--></g></svg>